HIERARCHY
ROOT Hips
{
	OFFSET 0.00000 0.00000 0.00000
	CHANNELS 6 Xposition Yposition Zposition Zrotation Yrotation Xrotation 
	JOINT LHipJoint
	{
		OFFSET 0 0 0
		CHANNELS 3 Zrotation Yrotation Xrotation
		JOINT LeftHip
		{
			OFFSET 1.81638 -1.86202 0.89635
			CHANNELS 3 Zrotation Yrotation Xrotation
			JOINT LeftKnee
			{
				OFFSET 2.63464 -7.23861 0.00000
				CHANNELS 3 Zrotation Yrotation Xrotation
				JOINT LeftAnkle
				{
					OFFSET 2.45871 -6.75336 0.00000
					CHANNELS 3 Zrotation Yrotation Xrotation
					JOINT LeftToe
					{
						OFFSET 0.34235 -0.94059 2.20020
						CHANNELS 3 Zrotation Yrotation Xrotation
						End Site
						{
							OFFSET 0.00000 -0.00000 1.18611
						}
					}
				}
			}
		}
	}
	JOINT RHipJoint
	{
		OFFSET 0 0 0
		CHANNELS 3 Zrotation Yrotation Xrotation
		JOINT RightHip
		{
			OFFSET -1.84405 -1.86203 0.89635
			CHANNELS 3 Zrotation Yrotation Xrotation
			JOINT RightKnee
			{
				OFFSET -2.71067 -7.44751 0.00000
				CHANNELS 3 Zrotation Yrotation Xrotation
				JOINT RightAnkle
				{
					OFFSET -2.47159 -6.79060 0.00000
					CHANNELS 3 Zrotation Yrotation Xrotation
					JOINT RightToe
					{
						OFFSET -0.26223 -0.72048 2.36007
						CHANNELS 3 Zrotation Yrotation Xrotation
						End Site
						{
							OFFSET -0.00000 -0.00000 1.23343
						}
					}
				}
			}
		}
	}
	JOINT lowerback
	{
		OFFSET 0 0 0
		CHANNELS 3 Zrotation Yrotation Xrotation
		JOINT Chest
		{
			OFFSET 0.02089 1.99248 -0.22512
			CHANNELS 3 Zrotation Yrotation Xrotation
			JOINT Chest2
			{
				OFFSET 0.01476 2.01356 -0.03079
				CHANNELS 3 Zrotation Yrotation Xrotation
				JOINT lowerneck
				{
					OFFSET 0 0 0
					CHANNELS 3 Zrotation Yrotation Xrotation
					JOINT Neck
					{
						OFFSET 0.04846 1.65098 0.06663
						CHANNELS 3 Zrotation Yrotation Xrotation
						JOINT Head
						{
							OFFSET -0.06061 1.60634 -0.07565
							CHANNELS 3 Zrotation Yrotation Xrotation
							End Site
							{
								OFFSET -0.02954 1.73562 -0.03642
							}
						}
					}
				}
				JOINT LeftCollar
				{
					OFFSET 0 0 0
					CHANNELS 3 Zrotation Yrotation Xrotation
					JOINT LeftShoulder
					{
						OFFSET 3.45234 1.47051 -0.06993
CHANNELS 3 Zrotation Xrotation Yrotation
						JOINT LeftElbow
						{
OFFSET 0 -5.493130 0.000000
CHANNELS 3 Zrotation Xrotation Yrotation
							JOINT LeftWrist
							{
OFFSET 0 -3.290370 0.000000
CHANNELS 3 Zrotation Xrotation Yrotation
								JOINT lhand
								{
									OFFSET 0 0 0
CHANNELS 3 Zrotation Xrotation Yrotation
									JOINT LFingers
									{
OFFSET 0 -0.729660 0.000000
CHANNELS 3 Zrotation Xrotation Yrotation
										End Site
										{
OFFSET 0 -0.588270 0.000000
										}
									}
								}
								JOINT LThumb
								{
OFFSET 0 0.000000 0.000000
CHANNELS 3 Zrotation Xrotation Yrotation
									End Site
									{
OFFSET 0 -0.597250 0.597250
									}
								}
							}
						}
					}
				}
				JOINT RightCollar
				{
					OFFSET 0 0 0
					CHANNELS 3 Zrotation Yrotation Xrotation
					JOINT RightShoulder
					{
						OFFSET -3.41935 1.44327 0.20453
CHANNELS 3 Zrotation Xrotation Yrotation
						JOINT RightElbow
						{
OFFSET 0 -5.236840 0.000000
CHANNELS 3 Zrotation Xrotation Yrotation
							JOINT RightWrist
							{
OFFSET 0 -3.382510 0.000000
CHANNELS 3 Zrotation Xrotation Yrotation
								JOINT rhand
								{
									OFFSET 0 0 0
CHANNELS 3 Zrotation Xrotation Yrotation
									JOINT RFingers
									{
OFFSET 0 -0.691450 0.000000
CHANNELS 3 Zrotation Xrotation Yrotation
										End Site
										{
OFFSET 0 -0.557470 0.000000
										}
									}
								}
								JOINT RThumb
								{
OFFSET 0 0.000000 0.000000
CHANNELS 3 Zrotation Xrotation Yrotation
									End Site
									{
OFFSET 0 -0.565980 0.565980
									}
								}
							}
						}
					}
				}
			}
		}
	}
}
MOTION
Frames: 12
Frame Time: 0.008333333333333333
-7.477200 17.389000 -1.945500 -144.760000 -81.095100 140.451000 0.000000 0.000000 0.000000 -14.499800 -15.254500 5.376100 2.804200 10.371100 30.187100 -0.375800 27.958100 -37.254900 0.018800 -0.885300 -2.433200 0.000000 0.000000 0.000000 23.665300 17.078800 5.043000 -2.428100 -9.706000 28.030000 -0.885700 -19.456700 -33.475500 -0.023900 -0.998200 2.743900 2.128300 0.032000 7.725400 1.721000 0.220900 1.319700 0.559900 0.072900 -2.964800 5.086900 1.586000 -8.063700 -4.482100 1.894700 6.066500 -2.303800 0.874400 3.543300 -0.000000 0.000000 0.000000 57.066100 -1.419000 52.993500 17.132500 -27.032100 4.147400 -3.330200 27.075700 -17.185300 0.000000 0.000000 0.000000 -7.125000 0.000000 0.000000 -28.652500 45.034100 0.026400 -0.000000 0.000000 0.000000 -60.605000 -1.256400 -41.664400 -14.991700 -24.134600 -3.222600 -2.737700 27.801500 16.962500 0.000000 0.000000 0.000000 7.125000 0.000000 -0.000000 23.326300 45.568600 -0.346400
-7.475398 17.389294 -1.935874 -143.823628 -81.233430 139.557104 0.000000 0.000000 0.000000 -14.513793 -15.479336 5.319909 2.818814 10.395704 30.268005 -0.373267 27.950542 -37.257410 0.018372 -0.874713 -2.404216 0.000000 0.000000 0.000000 23.618511 16.909101 4.956791 -2.421401 -9.693625 27.990302 -0.881573 -19.480651 -33.477542 -0.023826 -0.996856 2.740054 2.096103 -0.042830 7.774819 1.785679 0.123138 1.283984 0.654998 0.024263 -3.030028 5.043074 1.601489 -8.099987 -4.513425 1.922105 6.111034 -2.305526 0.885150 3.567262 0.000000 0.000000 0.000000 57.060008 -1.576293 53.793410 16.879772 -26.698925 4.033198 -3.387466 27.740594 -18.776423 0.000000 0.000000 0.000000 -7.125000 0.000000 0.000000 -29.469739 46.423882 1.133358 0.000000 0.000000 0.000000 -60.664954 -1.322810 -41.654064 -15.025644 -24.181759 -3.236431 -2.754372 27.782792 17.060428 0.000000 0.000000 0.000000 7.125000 0.000000 0.000000 23.352538 45.660346 -0.402837
-7.470984 17.389611 -1.922808 -142.954386 -81.350092 138.748337 0.000000 0.000000 0.000000 -14.526992 -15.690107 5.238450 2.833429 10.420385 30.349241 -0.348706 27.898641 -37.310347 0.016409 -0.827275 -2.273770 0.000000 0.000000 0.000000 23.555342 16.767971 4.848942 -2.414380 -9.680517 27.948180 -0.870398 -19.511182 -33.444599 -0.023689 -0.992752 2.728891 2.081435 -0.119610 7.834211 1.827025 0.024334 1.242388 0.716549 -0.025139 -3.106617 5.118174 1.618711 -8.033887 -4.602604 1.944036 6.003329 -2.347414 0.894616 3.521534 0.000000 0.000000 0.000000 56.990164 -1.537178 54.198295 16.803385 -26.597876 3.998940 -3.605175 27.604991 -19.372841 0.000000 0.000000 0.000000 -7.125000 0.000000 0.000000 -29.960015 46.915853 1.552939 0.000000 0.000000 0.000000 -60.690510 -1.351371 -41.485298 -15.054766 -24.222361 -3.248351 -2.968835 27.727231 16.796749 0.000000 0.000000 0.000000 7.125000 0.000000 0.000000 23.055278 45.444263 -0.267198
-7.466976 17.389700 -1.910144 -142.188977 -81.447752 138.037574 0.000000 0.000000 0.000000 -14.538813 -15.874263 5.158778 2.847405 10.443786 30.426051 -0.323486 27.844532 -37.363766 0.014764 -0.783920 -2.154396 0.000000 0.000000 0.000000 23.497022 16.650137 4.752946 -2.407208 -9.667185 27.905418 -0.859097 -19.544488 -33.414097 -0.023500 -0.990028 2.721368 2.067621 -0.178746 7.892740 1.863401 -0.051834 1.215748 0.770338 -0.063267 -3.167030 5.191520 1.622791 -7.975211 -4.697752 1.947749 5.862109 -2.391825 0.894672 3.464727 0.000000 0.000000 0.000000 56.885293 -1.495670 54.425422 16.790072 -26.580190 3.992931 -3.770848 27.371542 -19.844923 0.000000 0.000000 0.000000 -7.125000 0.000000 0.000000 -30.349174 47.304030 1.894151 0.000000 0.000000 0.000000 -60.700583 -1.361878 -41.359378 -15.093310 -24.275906 -3.264181 -3.071449 27.662322 16.699814 0.000000 0.000000 0.000000 7.125000 0.000000 0.000000 22.925712 45.367540 -0.219733
-7.462969 17.389623 -1.897124 -141.608364 -81.521315 137.513175 0.000000 0.000000 0.000000 -14.556001 -16.021554 5.079582 2.858522 10.462403 30.487408 -0.297448 27.789191 -37.419604 0.013141 -0.739509 -2.032371 0.000000 0.000000 0.000000 23.432773 16.570097 4.653943 -2.403618 -9.660537 27.884242 -0.849960 -19.569734 -33.387966 -0.023500 -0.989232 2.719141 2.055725 -0.216834 7.952962 1.885454 -0.100283 1.197843 0.805320 -0.087503 -3.219181 5.259337 1.616883 -7.916794 -4.769020 1.935884 5.679292 -2.427276 0.887842 3.392166 0.000000 0.000000 0.000000 56.733706 -1.407507 54.344946 16.884911 -26.705769 4.035515 -3.910681 26.952958 -19.892530 0.000000 0.000000 0.000000 -7.125000 0.000000 0.000000 -30.495008 47.326324 1.923380 0.000000 0.000000 0.000000 -60.682072 -1.327716 -41.235009 -15.135668 -24.334807 -3.281653 -3.122735 27.566186 16.631960 0.000000 0.000000 0.000000 7.125000 0.000000 0.000000 22.853026 45.311073 -0.185321
-7.458776 17.389914 -1.883627 -141.283903 -81.583996 137.254836 0.000000 0.000000 0.000000 -14.594621 -16.137254 4.990023 2.866737 10.476161 30.532765 -0.277473 27.747832 -37.464394 0.011830 -0.702217 -1.929787 0.000000 0.000000 0.000000 23.341434 16.526917 4.544251 -2.402386 -9.658201 27.876819 -0.843362 -19.584507 -33.364965 -0.023500 -0.989354 2.719477 2.034223 -0.233708 8.007928 1.888262 -0.122092 1.182800 0.823062 -0.098368 -3.265490 5.279071 1.601374 -7.888824 -4.770343 1.910042 5.504406 -2.430689 0.875484 3.324928 0.000000 0.000000 0.000000 56.555426 -1.292850 54.016773 17.059621 -26.936275 4.114327 -4.040692 26.520789 -19.600932 0.000000 0.000000 0.000000 -7.125000 0.000000 0.000000 -30.453277 47.055838 1.698479 0.000000 0.000000 0.000000 -60.641145 -1.259692 -41.154007 -15.169896 -24.382218 -3.295707 -3.122742 27.471335 16.569445 0.000000 0.000000 0.000000 7.125000 0.000000 0.000000 22.827624 45.253568 -0.150906
-7.454049 17.391072 -1.870052 -141.121312 -81.623304 137.169935 0.000000 0.000000 0.000000 -14.626998 -16.221452 4.880577 2.873020 10.486633 30.567443 -0.261788 27.714566 -37.498057 0.010696 -0.667081 -1.833206 0.000000 0.000000 0.000000 23.246598 16.521569 4.425838 -2.401193 -9.656055 27.869829 -0.837540 -19.592505 -33.338885 -0.023600 -0.992128 2.727151 2.008226 -0.236998 8.049206 1.880691 -0.126734 1.167620 0.830651 -0.100466 -3.304140 5.255084 1.582060 -7.878500 -4.705312 1.878849 5.352065 -2.403718 0.861918 3.266454 0.000000 0.000000 0.000000 56.376671 -1.144970 53.498721 17.282202 -27.228292 4.215682 -4.182332 26.079155 -19.120536 0.000000 0.000000 0.000000 -7.125000 0.000000 0.000000 -30.325433 46.619877 1.333457 0.000000 0.000000 0.000000 -60.586236 -1.191780 -41.139599 -15.183094 -24.400571 -3.301211 -3.103160 27.423337 16.483223 0.000000 0.000000 0.000000 7.125000 0.000000 0.000000 22.809865 45.171834 -0.102161
-7.448548 17.392858 -1.856538 -141.046451 -81.649500 137.178741 0.000000 0.000000 0.000000 -14.653396 -16.287635 4.757142 2.878493 10.495709 30.597423 -0.249093 27.685570 -37.522477 0.009501 -0.630345 -1.732145 0.000000 0.000000 0.000000 23.151454 16.537040 4.305275 -2.398983 -9.651846 27.856641 -0.828893 -19.606259 -33.302612 -0.023460 -0.988967 2.718439 1.975829 -0.234085 8.075291 1.865428 -0.124383 1.154078 0.833062 -0.098842 -3.332726 5.214408 1.557896 -7.872493 -4.598009 1.840777 5.228802 -2.359998 0.846204 3.217359 0.000000 0.000000 0.000000 56.219979 -0.980849 52.874978 17.520654 -27.539003 4.325358 -4.342443 25.577279 -18.582089 0.000000 0.000000 0.000000 -7.125000 0.000000 0.000000 -30.188341 46.130867 0.927278 0.000000 0.000000 0.000000 -60.512806 -1.110131 -41.114222 -15.189718 -24.409737 -3.303959 -3.080369 27.361592 16.423995 0.000000 0.000000 0.000000 7.125000 0.000000 0.000000 22.805896 45.114573 -0.068136
-7.442538 17.394563 -1.842894 -141.005194 -81.678931 137.216087 0.000000 0.000000 0.000000 -14.686749 -16.349751 4.636626 2.883635 10.504262 30.625730 -0.240456 27.663886 -37.536416 0.008473 -0.594908 -1.634839 0.000000 0.000000 0.000000 23.051892 16.551933 4.191251 -2.396264 -9.646765 27.840276 -0.817648 -19.627793 -33.259447 -0.023064 -0.979794 2.693263 1.940198 -0.228965 8.098431 1.841551 -0.119674 1.141766 0.828120 -0.096046 -3.358340 5.198644 1.523318 -7.846363 -4.505598 1.788423 5.118206 -2.326950 0.823515 3.168956 0.000000 0.000000 0.000000 56.102229 -0.830012 52.234010 17.745427 -27.829932 4.429788 -4.503740 25.018543 -18.098639 0.000000 0.000000 0.000000 -7.125000 0.000000 0.000000 -30.084555 45.689440 0.563743 0.000000 0.000000 0.000000 -60.426048 -1.025573 -41.139369 -15.188119 -24.407511 -3.303301 -3.049479 27.339672 16.365536 0.000000 0.000000 0.000000 7.125000 0.000000 0.000000 22.809143 45.056999 -0.033905
-7.436265 17.396058 -1.829682 -140.970359 -81.706996 137.249195 0.000000 0.000000 0.000000 -14.720678 -16.405180 4.525514 2.888777 10.512797 30.653852 -0.234329 27.645420 -37.542142 0.007596 -0.561601 -1.543239 0.000000 0.000000 0.000000 22.958465 16.564414 4.091294 -2.392929 -9.640661 27.820625 -0.803973 -19.659791 -33.213050 -0.022347 -0.965569 2.654176 1.903820 -0.219726 8.118753 1.812835 -0.110115 1.135278 0.817822 -0.090806 -3.376380 5.200010 1.480342 -7.803433 -4.433007 1.725480 5.016551 -2.304423 0.795331 3.120734 0.000000 0.000000 0.000000 56.038269 -0.730462 51.684370 17.926086 -28.062358 4.514420 -4.630356 24.519299 -17.752176 0.000000 0.000000 0.000000 -7.125000 0.000000 0.000000 -30.021776 45.371640 0.303379 0.000000 0.000000 0.000000 -60.329168 -0.947649 -41.239932 -15.179106 -24.394988 -3.299532 -3.020165 27.360065 16.340115 0.000000 0.000000 0.000000 7.125000 0.000000 0.000000 22.824473 45.030098 -0.017898
-7.429470 17.397868 -1.816994 -140.913728 -81.725249 137.257459 0.000000 0.000000 0.000000 -14.741168 -16.453415 4.411122 2.894503 10.522295 30.685193 -0.229924 27.626572 -37.538224 0.006773 -0.532583 -1.463379 0.000000 0.000000 0.000000 22.878704 16.579014 3.999866 -2.387570 -9.630524 27.788391 -0.787505 -19.702398 -33.161918 -0.021516 -0.947364 2.604056 1.882692 -0.200243 8.138252 1.782156 -0.085870 1.132705 0.795467 -0.078456 -3.389989 5.182294 1.423342 -7.779727 -4.360593 1.645685 4.944702 -2.279778 0.758159 3.085289 0.000000 0.000000 0.000000 56.032863 -0.720538 51.295658 18.039294 -28.207481 4.567801 -4.712220 24.196997 -17.573157 0.000000 0.000000 0.000000 -7.125000 0.000000 0.000000 -30.003949 45.205420 0.167647 0.000000 0.000000 0.000000 -60.230063 -0.859876 -41.397426 -15.168083 -24.379808 -3.295011 -2.993729 27.380392 16.361044 0.000000 0.000000 0.000000 7.125000 0.000000 0.000000 22.855976 45.046255 -0.027579
-7.422152 17.400149 -1.804779 -140.771558 -81.727314 137.181538 0.000000 0.000000 0.000000 -14.733531 -16.498074 4.286814 2.902060 10.534746 30.726286 -0.221378 27.593687 -37.535813 0.006013 -0.500248 -1.374640 0.000000 0.000000 0.000000 22.822476 16.593996 3.916099 -2.378516 -9.613606 27.734307 -0.768406 -19.751497 -33.102481 -0.020750 -0.929755 2.555552 1.885072 -0.178368 8.156719 1.755045 -0.056196 1.126515 0.762948 -0.063779 -3.406732 5.119924 1.362668 -7.782995 -4.262833 1.563961 4.924411 -2.238927 0.719873 3.071388 0.000000 0.000000 0.000000 56.078268 -0.770441 51.075979 18.082795 -28.263044 4.588385 -4.749407 24.049773 -17.565479 0.000000 0.000000 0.000000 -7.125000 0.000000 0.000000 -30.031535 45.194145 0.158648 0.000000 0.000000 0.000000 -60.143899 -0.788031 -41.613056 -15.147757 -24.351572 -3.286603 -2.970207 27.421624 16.403438 0.000000 0.000000 0.000000 7.125000 0.000000 0.000000 22.893539 45.082528 -0.049294
